<svg width="57.5" height="57.5" viewBox="0 0 100 100" xmlns="http://www.w3.org/2000/svg">
  <defs>
    <linearGradient id="grad1" x1="0%" y1="0%" x2="100%">
      <stop offset="0%" style="stop-color:#FFA500;stop-opacity:1" />
      <stop offset="100%" style="stop-color:#000000;stop-opacity:1" />
    </linearGradient>
  </defs>
  <circle cx="50" cy="50" r="45" fill="url(#grad1)" stroke="#303140" stroke-width="5"/>
  <g transform="translate(25, 15) scale(0.5)">
    <path d="M19.7866 37.9792C15.071 37.9737 10.5501 36.098 7.21566 32.7636C3.8812 29.4291 2.00549 24.9082 2 20.1926H7.59673C7.59728 22.9386 8.52499 25.604 10.2295 27.7569C11.9341 29.9098 14.3156 31.4241 16.9883 32.0545V20.1926H14.3684V14.5959H16.9883V8.01098H14.3684V3.25293C16.0483 2.4286 17.8947 2 19.7659 2C21.6371 2 23.4835 2.4286 25.1633 3.25293V8.01098H22.5767V14.5959H25.1924V20.1926H22.5767V32.0545C25.2486 31.4233 27.6292 29.9087 29.3329 27.7558C31.0367 25.603 31.9638 22.938 31.9641 20.1926H37.565C37.565 24.9104 35.6929 29.4354 32.3596 32.7741C29.0264 36.1128 24.5044 37.9923 19.7866 38V37.9792Z" fill="white"/>
  </g>
  <text x="50%" y="44%" dominant-baseline="middle" text-anchor="middle" font-size="16" fill="#ffffff" font-family="Arial" font-weight="bold">
    Event
  </text>
  <text x="50%" y="60%" dominant-baseline="middle" text-anchor="middle" font-size="16" fill="#ffffff" font-family="Arial" font-weight="bold">
    Halloween
  </text>
  <text x="50%" y="76%" dominant-baseline="middle" text-anchor="middle" font-size="16" fill="#ffffff" font-family="Arial" font-weight="bold">
    2024
  </text>
</svg>
