<svg width="100%" height="100%" viewBox="0 0 200 70" xmlns="http://www.w3.org/2000/svg">
  <defs>
    <linearGradient id="grad1" x1="0%" y1="0%" x2="100%">
      <stop offset="0%" style="stop-color:#4dd699;stop-opacity:1" />
      <stop offset="100%" style="stop-color:#00c18c;stop-opacity:1" />
    </linearGradient>
  </defs>
  <rect width="200" height="70" fill="url(#grad1)" />
  <g transform="translate(90, 18) scale(0.5)">
    <svg width="40" height="40" viewBox="0 0 24 24" fill="#6e768d" xmlns="http://www.w3.org/2000/svg">
      <path d="M16 11C18.2091 11 20 9.20914 20 7C20 4.79086 18.2091 3 16 3C13.7909 3 12 4.79086 12 7C12 9.20914 13.7909 11 16 11Z" fill="#6e768d"/>
      <path fill-rule="evenodd" clip-rule="evenodd" d="M16 13C19.3137 13 22 14.6863 22 17V20H10V17C10 14.6863 12.6863 13 16 13ZM6 12C8.20914 12 10 10.2091 10 8C10 5.79086 8.20914 4 6 4C3.79086 4 2 5.79086 2 8C2 10.2091 3.79086 12 6 12ZM6 14C8.93913 14 12 15.3431 12 17V20H0V17C0 15.3431 3.06087 14 6 14Z" fill="#6e768d"/>
    </svg>
  </g>
  <text x="50%" y="75%" dominant-baseline="middle" text-anchor="middle" font-size="16" fill="#6e768d" font-family="Brush Script MT, cursive" font-weight="bold">
    Super Referral
  </text>
</svg>
